<svg xmlns="http://www.w3.org/2000/svg" viewBox="0 0 100 100">
  <defs>
    <linearGradient id="leafGradient" x1="0%" y1="0%" x2="100%" y2="100%">
      <stop offset="0%" style="stop-color:#2d6a4f;stop-opacity:1" />
      <stop offset="50%" style="stop-color:#40916c;stop-opacity:1" />
      <stop offset="100%" style="stop-color:#52b788;stop-opacity:1" />
    </linearGradient>
  </defs>
  
  <!-- Background circle -->
  <circle cx="50" cy="50" r="48" fill="#fefdf9"/>
  
  <!-- Tropical leaf -->
  <path d="M 50 15 Q 65 25, 70 40 Q 72 50, 70 60 Q 65 75, 50 85 Q 35 75, 30 60 Q 28 50, 30 40 Q 35 25, 50 15 Z" 
        fill="url(#leafGradient)" 
        stroke="#1a3d2b" 
        stroke-width="2"/>
  
  <!-- Leaf vein -->
  <line x1="50" y1="18" x2="50" y2="82" stroke="#1a3d2b" stroke-width="1.5" opacity="0.4"/>
  <path d="M 50 30 Q 60 35, 65 45" stroke="#1a3d2b" stroke-width="1" opacity="0.3" fill="none"/>
  <path d="M 50 30 Q 40 35, 35 45" stroke="#1a3d2b" stroke-width="1" opacity="0.3" fill="none"/>
  <path d="M 50 50 Q 60 53, 65 60" stroke="#1a3d2b" stroke-width="1" opacity="0.3" fill="none"/>
  <path d="M 50 50 Q 40 53, 35 60" stroke="#1a3d2b" stroke-width="1" opacity="0.3" fill="none"/>
  <path d="M 50 70 Q 58 72, 62 75" stroke="#1a3d2b" stroke-width="1" opacity="0.3" fill="none"/>
  <path d="M 50 70 Q 42 72, 38 75" stroke="#1a3d2b" stroke-width="1" opacity="0.3" fill="none"/>
</svg>
